<svg width="371" height="142" viewBox="0 0 371 142" fill="none" xmlns="http://www.w3.org/2000/svg">
<path d="M207.1 141.6H150.5L162.8 0.0999756H219.5L207.1 141.6Z" fill="url(#paint0_linear)"/>
<path d="M370.8 0.0999756H243.4L239.7 42.5H275.1L266.4 141.6H323L331.7 42.5H367.1L370.8 0.0999756Z" fill="url(#paint1_linear)"/>
<path d="M86.8 0.0999756H13.3L0.900024 141.7H57.5L65 55.7C63 54.5 61.6 52.2 61.6 49.7C61.6 45.8 64.8 42.6 68.7 42.6C72.6 42.6 75.8 45.8 75.8 49.7C75.8 52.5 74.1 55 71.7 56.1L68.3 94.9H78.4001C104.6 94.9 127.6 73.7 129.9 47.5C132.3 21.3 113 0.0999756 86.8 0.0999756Z" fill="url(#paint2_linear)"/>
<defs>
<linearGradient id="paint0_linear" x1="183.051" y1="10.8664" x2="198.627" y2="195.659" gradientUnits="userSpaceOnUse">
<stop stop-color="#00D3FF"/>
<stop offset="0.9676" stop-color="#1200D4"/>
</linearGradient>
<linearGradient id="paint1_linear" x1="301.547" y1="10.8664" x2="309.787" y2="196.607" gradientUnits="userSpaceOnUse">
<stop stop-color="#00D3FF"/>
<stop offset="0.9676" stop-color="#1200D4"/>
</linearGradient>
<linearGradient id="paint2_linear" x1="61.8517" y1="10.874" x2="70.2238" y2="196.734" gradientUnits="userSpaceOnUse">
<stop stop-color="#00D3FF"/>
<stop offset="0.9676" stop-color="#1200D4"/>
</linearGradient>
</defs>
</svg>
